<svg width="70" height="70" viewBox="0 0 70 70" fill="none" xmlns="http://www.w3.org/2000/svg">
<rect width="70" height="70" rx="35" fill="url(#paint0_linear_918_181522)"/>
<path d="M29.75 49C29.75 49.9283 29.3813 50.8185 28.7249 51.4749C28.0685 52.1313 27.1783 52.5 26.25 52.5H19.25C18.7859 52.5 18.3408 52.3157 18.0126 51.9875C17.6844 51.6593 17.5 51.2142 17.5 50.75C17.5 50.2859 17.6844 49.8408 18.0126 49.5126C18.3408 49.1844 18.7859 49 19.25 49H26.25V43.7553L25.6498 43.757C25.5813 43.757 25.513 43.7529 25.445 43.7448L25.2612 43.743C20.1162 43.5505 15.9565 39.5448 15.7587 34.5328L15.75 34.1548C15.75 29.3475 19.39 25.3873 24.122 24.675L24.3215 24.647L24.444 24.3303C25.6042 21.4953 28.042 19.2448 31.1447 18.1738L31.5718 18.0338C35.4113 16.8665 39.6462 17.6418 42.7017 20.0918C45.1255 22.0308 46.529 24.7923 46.6392 27.6868L46.6463 28.0578L46.8055 28.063C50.8305 28.2503 54.0558 31.4948 54.243 35.5355L54.25 35.9048C54.25 40.2413 50.7552 43.757 46.4362 43.757H43.75V49H50.75C51.2141 49 51.6592 49.1844 51.9874 49.5126C52.3156 49.8408 52.5 50.2859 52.5 50.75C52.5 51.2142 52.3156 51.6593 51.9874 51.9875C51.6592 52.3157 51.2141 52.5 50.75 52.5H43.75C42.8217 52.5 41.9315 52.1313 41.2751 51.4749C40.6187 50.8185 40.25 49.9283 40.25 49V43.7553H36.75V50.75C36.75 51.2142 36.5656 51.6593 36.2374 51.9875C35.9092 52.3157 35.4641 52.5 35 52.5C34.5359 52.5 34.0908 52.3157 33.7626 51.9875C33.4344 51.6593 33.25 51.2142 33.25 50.75V43.7553H29.75V49Z" fill="white"/>
<defs>
<linearGradient id="paint0_linear_918_181522" x1="35" y1="0" x2="35" y2="70" gradientUnits="userSpaceOnUse">
<stop offset="0.25" stop-color="#6AB4F5"/>
<stop offset="1" stop-color="#3862A9"/>
</linearGradient>
</defs>
</svg>
