<svg width="70" height="70" viewBox="0 0 70 70" fill="none" xmlns="http://www.w3.org/2000/svg">
<rect width="70" height="70" rx="35" fill="url(#paint0_linear_918_181537)"/>
<path d="M35 16.25C35.9946 16.25 36.9484 16.6451 37.6516 17.3483C38.3549 18.0516 38.75 19.0054 38.75 20C38.75 21.3875 38 22.6063 36.875 23.2438V25.625H38.75C42.231 25.625 45.5694 27.0078 48.0308 29.4692C50.4922 31.9306 51.875 35.269 51.875 38.75H53.75C54.2473 38.75 54.7242 38.9475 55.0758 39.2992C55.4275 39.6508 55.625 40.1277 55.625 40.625V46.25C55.625 46.7473 55.4275 47.2242 55.0758 47.5758C54.7242 47.9275 54.2473 48.125 53.75 48.125H51.875V50C51.875 50.9946 51.4799 51.9484 50.7766 52.6516C50.0734 53.3549 49.1196 53.75 48.125 53.75H21.875C20.8804 53.75 19.9266 53.3549 19.2233 52.6516C18.5201 51.9484 18.125 50.9946 18.125 50V48.125H16.25C15.7527 48.125 15.2758 47.9275 14.9242 47.5758C14.5725 47.2242 14.375 46.7473 14.375 46.25V40.625C14.375 40.1277 14.5725 39.6508 14.9242 39.2992C15.2758 38.9475 15.7527 38.75 16.25 38.75H18.125C18.125 35.269 19.5078 31.9306 21.9692 29.4692C24.4306 27.0078 27.769 25.625 31.25 25.625H33.125V23.2438C32 22.6063 31.25 21.3875 31.25 20C31.25 19.0054 31.6451 18.0516 32.3484 17.3483C33.0516 16.6451 34.0054 16.25 35 16.25ZM26.5625 36.875C25.3193 36.875 24.127 37.3689 23.2479 38.2479C22.3689 39.127 21.875 40.3193 21.875 41.5625C21.875 42.8057 22.3689 43.998 23.2479 44.8771C24.127 45.7561 25.3193 46.25 26.5625 46.25C27.8057 46.25 28.998 45.7561 29.8771 44.8771C30.7561 43.998 31.25 42.8057 31.25 41.5625C31.25 40.3193 30.7561 39.127 29.8771 38.2479C28.998 37.3689 27.8057 36.875 26.5625 36.875ZM43.4375 36.875C42.1943 36.875 41.002 37.3689 40.1229 38.2479C39.2439 39.127 38.75 40.3193 38.75 41.5625C38.75 42.8057 39.2439 43.998 40.1229 44.8771C41.002 45.7561 42.1943 46.25 43.4375 46.25C44.6807 46.25 45.873 45.7561 46.7521 44.8771C47.6311 43.998 48.125 42.8057 48.125 41.5625C48.125 40.3193 47.6311 39.127 46.7521 38.2479C45.873 37.3689 44.6807 36.875 43.4375 36.875Z" fill="white"/>
<defs>
<linearGradient id="paint0_linear_918_181537" x1="35" y1="0" x2="35" y2="70" gradientUnits="userSpaceOnUse">
<stop offset="0.25" stop-color="#6AB4F5"/>
<stop offset="1" stop-color="#3862A9"/>
</linearGradient>
</defs>
</svg>
