<svg width="70" height="70" viewBox="0 0 70 70" fill="none" xmlns="http://www.w3.org/2000/svg">
<rect width="70" height="70" rx="35" fill="url(#paint0_linear_918_181534)"/>
<path d="M50.0575 24.3904L35.3459 17.8481C35.2376 17.7972 35.1194 17.7708 34.9998 17.7708C34.8801 17.7708 34.7619 17.7972 34.6536 17.8481L19.9421 24.3904C19.79 24.4567 19.6601 24.5655 19.5681 24.7035C19.476 24.8416 19.4256 25.0033 19.4229 25.1692V29.8077C19.4229 38.3231 24.5113 48.6385 34.6882 52.2038C34.8903 52.2724 35.1093 52.2724 35.3113 52.2038C45.4882 48.6385 50.5767 38.3231 50.5767 29.8077V25.1692C50.5739 25.0033 50.5235 24.8416 50.4315 24.7035C50.3394 24.5655 50.2096 24.4567 50.0575 24.3904ZM43.1136 30.1192L33.9752 41.7535C33.8423 41.9212 33.6757 42.059 33.486 42.158C33.2963 42.257 33.0879 42.315 32.8744 42.3281L32.7844 42.3315C32.382 42.3308 31.9962 42.1709 31.7113 41.8867L27.0036 37.179C26.7197 36.8944 26.5605 36.5087 26.561 36.1067C26.5615 35.7047 26.7216 35.3194 27.0062 35.0355C27.2908 34.7516 27.6765 34.5923 28.0785 34.5928C28.4805 34.5933 28.8659 34.7535 29.1498 35.0381L32.6494 38.5377L40.7321 28.2483C40.9848 27.9455 41.3455 27.753 41.7377 27.7118C42.13 27.6706 42.5228 27.7838 42.8329 28.0275C43.143 28.2712 43.346 28.6261 43.3987 29.017C43.4515 29.4078 43.3498 29.8038 43.1154 30.121L43.1136 30.1192Z" fill="white"/>
<defs>
<linearGradient id="paint0_linear_918_181534" x1="35" y1="0" x2="35" y2="70" gradientUnits="userSpaceOnUse">
<stop offset="0.25" stop-color="#6AB4F5"/>
<stop offset="1" stop-color="#3862A9"/>
</linearGradient>
</defs>
</svg>
