<svg width="70" height="70" viewBox="0 0 70 70" fill="none" xmlns="http://www.w3.org/2000/svg">
<rect width="70" height="70" rx="35" fill="url(#paint0_linear_918_181528)"/>
<path d="M41.5624 35C39.8758 35 38.2451 34.247 36.9687 32.8803C35.7275 31.5473 34.9696 29.7697 34.8358 27.8764C34.6931 25.8568 35.3092 23.9996 36.57 22.6461C37.8308 21.2926 39.5937 20.5625 41.5624 20.5625C43.5172 20.5625 45.285 21.3057 46.5417 22.6559C47.8107 24.0193 48.4284 25.8732 48.2857 27.8756C48.1487 29.7713 47.3915 31.5481 46.1529 32.8795C44.8798 34.247 43.2498 35 41.5624 35ZM52.3766 49.4375H30.749C30.4013 49.4394 30.0578 49.3614 29.7449 49.2097C29.4321 49.0579 29.1582 48.8364 28.9444 48.5622C28.7175 48.265 28.5609 47.9202 28.4862 47.5539C28.4115 47.1875 28.4206 46.809 28.5129 46.4466C29.2036 43.6732 30.9148 41.373 33.461 39.7955C35.721 38.3961 38.5978 37.625 41.5624 37.625C44.5853 37.625 47.3866 38.3633 49.6597 39.7619C52.2117 41.3312 53.9253 43.6445 54.6128 46.4516C54.7039 46.8142 54.712 47.1927 54.6365 47.5589C54.5609 47.925 54.4036 48.2694 54.1764 48.5663C53.9627 48.8393 53.6895 49.0597 53.3775 49.2107C53.0656 49.3617 52.7232 49.4393 52.3766 49.4375ZM26.0585 35.3281C23.1718 35.3281 20.6338 32.6441 20.3983 29.3456C20.2819 27.6557 20.8085 26.093 21.8749 24.9471C22.9298 23.8126 24.4179 23.1875 26.0585 23.1875C27.6991 23.1875 29.1757 23.8159 30.2364 24.9569C31.311 26.1119 31.836 27.6713 31.7129 29.3472C31.4775 32.6449 28.9403 35.3281 26.0585 35.3281ZM31.4447 37.908C30.0017 37.2025 28.129 36.8498 26.0593 36.8498C23.6427 36.8498 21.2958 37.4798 19.4501 38.6233C17.3574 39.9219 15.9498 41.8127 15.3813 44.0956C15.2981 44.424 15.2903 44.7669 15.3583 45.0988C15.4263 45.4306 15.5685 45.7427 15.7742 46.0119C15.9694 46.2625 16.2195 46.4649 16.5052 46.6037C16.7909 46.7425 17.1046 46.8139 17.4223 46.8125H26.5277C26.6814 46.8125 26.8302 46.7585 26.9482 46.66C27.0662 46.5615 27.1458 46.4248 27.1733 46.2736C27.1823 46.2219 27.1938 46.1702 27.2069 46.1193C27.9026 43.3254 29.5325 40.9645 31.941 39.2435C32.0295 39.1796 32.1008 39.0947 32.1483 38.9963C32.1957 38.898 32.2179 38.7894 32.2127 38.6803C32.2076 38.5712 32.1753 38.4651 32.1189 38.3717C32.0624 38.2782 31.9835 38.2003 31.8893 38.1451C31.7605 38.0696 31.6128 37.99 31.4447 37.908Z" fill="white"/>
<defs>
<linearGradient id="paint0_linear_918_181528" x1="35" y1="0" x2="35" y2="70" gradientUnits="userSpaceOnUse">
<stop offset="0.25" stop-color="#6AB4F5"/>
<stop offset="1" stop-color="#3862A9"/>
</linearGradient>
</defs>
</svg>
