<svg width="70" height="70" viewBox="0 0 70 70" fill="none" xmlns="http://www.w3.org/2000/svg">
<rect width="70" height="70" rx="35" fill="url(#paint0_linear_918_181525)"/>
<mask id="mask0_918_181525" style="mask-type:alpha" maskUnits="userSpaceOnUse" x="12" y="12" width="46" height="46">
<rect x="12" y="12" width="46" height="46" fill="#D9D9D9"/>
</mask>
<g mask="url(#mask0_918_181525)">
<path d="M34.9999 54.1665C32.6041 54.1665 30.36 53.7113 28.2676 52.8009C26.1753 51.8905 24.3544 50.6606 22.8051 49.1113C21.2558 47.562 20.0259 45.7412 19.1155 43.6488C18.2051 41.5565 17.7499 39.3124 17.7499 36.9165C17.7499 34.5207 18.2051 32.2766 19.1155 30.1842C20.0259 28.0919 21.2558 26.271 22.8051 24.7217C24.3544 23.1724 26.1753 21.9426 28.2676 21.0322C30.36 20.1217 32.6041 19.6665 34.9999 19.6665C37.3957 19.6665 39.6398 20.1217 41.7322 21.0322C43.8246 21.9426 45.6454 23.1724 47.1947 24.7217C48.744 26.271 49.9739 28.0919 50.8843 30.1842C51.7947 32.2766 52.2499 34.5207 52.2499 36.9165C52.2499 39.3124 51.7947 41.5565 50.8843 43.6488C49.9739 45.7412 48.744 47.562 47.1947 49.1113C45.6454 50.6606 43.8246 51.8905 41.7322 52.8009C39.6398 53.7113 37.3957 54.1665 34.9999 54.1665ZM40.3666 44.9665L43.0499 42.2832L36.9166 36.1499V27.3332H33.0832V37.6832L40.3666 44.9665ZM22.7332 16.504L25.4166 19.1874L17.2707 27.3332L14.5874 24.6499L22.7332 16.504ZM47.2666 16.504L55.4124 24.6499L52.7291 27.3332L44.5832 19.1874L47.2666 16.504ZM34.9999 50.3332C38.7374 50.3332 41.9079 49.0315 44.5114 46.428C47.1148 43.8245 48.4166 40.654 48.4166 36.9165C48.4166 33.179 47.1148 30.0085 44.5114 27.4051C41.9079 24.8016 38.7374 23.4999 34.9999 23.4999C31.2624 23.4999 28.0919 24.8016 25.4884 27.4051C22.885 30.0085 21.5832 33.179 21.5832 36.9165C21.5832 40.654 22.885 43.8245 25.4884 46.428C28.0919 49.0315 31.2624 50.3332 34.9999 50.3332Z" fill="white"/>
</g>
<defs>
<linearGradient id="paint0_linear_918_181525" x1="35" y1="0" x2="35" y2="70" gradientUnits="userSpaceOnUse">
<stop offset="0.25" stop-color="#6AB4F5"/>
<stop offset="1" stop-color="#3862A9"/>
</linearGradient>
</defs>
</svg>
